<?xml version="1.0" encoding="UTF-8" standalone="no"?>
<svg width="70px" height="79px" viewBox="0 0 70 79" version="1.1" xmlns="http://www.w3.org/2000/svg" xmlns:xlink="http://www.w3.org/1999/xlink" xmlns:sketch="http://www.bohemiancoding.com/sketch/ns">
    <!-- Generator: Sketch 3.2.2 (9983) - http://www.bohemiancoding.com/sketch -->
    <title>Slice 1</title>
    <desc>Created with Sketch.</desc>
    <defs></defs>
    <g id="Page-1" stroke="none" stroke-width="1" fill="none" fill-rule="evenodd" sketch:type="MSPage">
        <g id="logo" sketch:type="MSLayerGroup" fill="#000000">
            <path d="M35.1,60.8 C30.3,60.8 26.3,63 26.3,67 L43.8,67 C43.9,63 40,60.8 35.1,60.8 L35.1,60.8 Z" id="Shape" sketch:type="MSShapeGroup"></path>
            <path d="M68.7,48 C70.5,43 68.8,40.3 67,39 C67,39 71,22.2 63,12.2 C55,2.2 34.9,-6 19.3,6 L19.3,6 L19,6 L19,6 C-4,9.6 2,39.8 2,39.8 L2.1,39.8 C0.8,41.3 -0.1,43.8 1.4,48 C3.6,54.1 7.6,55 9.6,55 C14.6,67.4 23.7,78.2 35.2,78.2 C40.9,78.2 46,75.5 50.3,71.4 C52.2,72.8 54.5,73.7 57.1,73.7 C63.3,73.7 68.4,68.6 68.4,62.4 C68.4,59 66.9,56 64.5,53.9 C66,52.8 67.5,51 68.7,48 L68.7,48 Z M35.1,75.6 C19.9,75.6 9.4,54.4 7.8,38.1 C9.4,36.6 14,32 17.3,24.9 C18.8,22 19.6,18.9 20.1,16.3 C20.5,14.2 20.8,11.9 20.8,9.5 C26.9,29.5 59.3,24.8 62.4,37.5 C61,53.9 50.5,75.6 35.1,75.6 L35.1,75.6 Z" id="Shape" sketch:type="MSShapeGroup"></path>
            <path d="M35,56.6 C37.1,56.6 38.8,55.8 38.8,54.8 C38.8,53.8 37.1,49.1 35,49.1 C32.9,49.1 31.2,53.8 31.2,54.8 C31.2,55.8 32.9,56.6 35,56.6 L35,56.6 Z" id="Shape" sketch:type="MSShapeGroup"></path>
            <path d="M22.1,54.15 C22.8184211,54.15 23.4,53.6113333 23.4,52.938 C23.4,52.2646667 22.8184211,49.1 22.1,49.1 C21.3815789,49.1 20.8,52.2646667 20.8,52.938 C20.8,53.6113333 21.3815789,54.15 22.1,54.15 L22.1,54.15 Z" id="Shape-2" sketch:type="MSShapeGroup"></path>
            <path d="M50.1,54.15 C50.8184211,54.15 51.4,53.6113333 51.4,52.938 C51.4,52.2646667 50.8184211,49.1 50.1,49.1 C49.3815789,49.1 48.8,52.2646667 48.8,52.938 C48.8,53.6113333 49.3815789,54.15 50.1,54.15 L50.1,54.15 Z" id="Shape-3" sketch:type="MSShapeGroup"></path>
            <path d="M22.1,60.15 C22.8184211,60.15 23.4,59.6113333 23.4,58.938 C23.4,58.2646667 22.8184211,55.1 22.1,55.1 C21.3815789,55.1 20.8,58.2646667 20.8,58.938 C20.8,59.6113333 21.3815789,60.15 22.1,60.15 L22.1,60.15 Z" id="Shape-4" sketch:type="MSShapeGroup"></path>
            <path d="M50.1,63.325 C50.8184211,63.325 51.4,62.7863333 51.4,62.113 C51.4,61.4396667 50.8184211,58.275 50.1,58.275 C49.3815789,58.275 48.8,61.4396667 48.8,62.113 C48.8,62.7863333 49.3815789,63.325 50.1,63.325 L50.1,63.325 Z" id="Shape-5" sketch:type="MSShapeGroup"></path>
            <path d="M46.8,46.3 C43.7,46.3 41.2,43.8 41.2,40.7 C41.2,37.8 43.5,35.4 46.3,35.1 C46.7,35.8 47.1,36.4 47.6,37 C47.3,36.9 47.1,36.9 46.8,36.9 C44.7,36.9 43,38.6 43,40.7 C43,42.8 44.7,44.5 46.8,44.5 C48.9,44.5 50.6,42.8 50.6,40.7 C50.6,40.2 50.5,39.8 50.3,39.3 C50.9,39.7 51.6,40 52.4,40.3 L52.4,40.6 C52.4,43.8 49.9,46.3 46.8,46.3 L46.8,46.3 Z" id="Shape" sketch:type="MSShapeGroup"></path>
            <path d="M23.4,46.3 C20.3,46.3 17.8,43.8 17.8,40.7 L17.8,40.4 C18.6,40.1 19.2,39.8 19.9,39.4 C19.7,39.8 19.6,40.3 19.6,40.8 C19.6,42.9 21.3,44.6 23.4,44.6 C25.5,44.6 27.2,42.9 27.2,40.8 C27.2,38.7 25.5,37 23.4,37 C23.1,37 22.9,37 22.6,37.1 C23.1,36.5 23.5,35.9 23.9,35.2 C26.8,35.5 29,37.9 29,40.8 C29.1,43.8 26.5,46.3 23.4,46.3 L23.4,46.3 Z" id="Shape" sketch:type="MSShapeGroup"></path>
        </g>
    </g>
</svg>