<svg xmlns="http://www.w3.org/2000/svg" xmlns:xlink="http://www.w3.org/1999/xlink" version="1.1" id="Layer_1" x="0px" y="0px" viewBox="4.5 -9.0 90.0 121.5" enable-background="new 0 0 90 90" xml:space="preserve" height="100px" width="100px">
<path d="M45.1,66.8c-4.8,0-8.8,2.2-8.8,6.2h17.5C53.9,69,50,66.8,45.1,66.8z"/>
<path d="M78.7,54c1.8-5,0.1-7.7-1.7-9c0,0,4-16.8-4-26.8C65,8.2,44.9,0,29.3,12h0c0,0-0.3,0-0.3,0v0C6,15.6,12,45.8,12,45.8  s0.1,0,0.1,0c-1.3,1.5-2.2,4-0.7,8.2c2.2,6.1,6.2,7,8.2,7c5,12.4,14.1,23.2,25.6,23.2c5.7,0,10.8-2.7,15.1-6.8  c1.9,1.4,4.2,2.3,6.8,2.3c6.2,0,11.3-5.1,11.3-11.3c0-3.4-1.5-6.4-3.9-8.5C76,58.8,77.5,57,78.7,54z M45.1,81.6  c-15.2,0-25.7-21.2-27.3-37.5c1.6-1.5,6.2-6.1,9.5-13.2c1.5-2.9,2.3-6,2.8-8.6c0.4-2.1,0.7-4.4,0.7-6.8c6.1,20,38.5,15.3,41.6,28  C71,59.9,60.5,81.6,45.1,81.6z"/>
<path d="M45,62.6c2.1,0,3.8-0.8,3.8-1.8s-1.7-5.7-3.8-5.7s-3.8,4.7-3.8,5.7S42.9,62.6,45,62.6z"/>
<path d="M63.6,45.3l-0.4-0.1c-2.8-1-4.8-2.7-5.9-5.1l-0.2-0.4l-0.4,0c-3.8,0.1-6.9,3.2-6.9,6.9c0,3.8,3.1,7,7,7s7-3.1,7-7  c0-0.3,0-0.5-0.1-0.8L63.6,45.3z M56.8,52.3c-3.1,0-5.6-2.5-5.6-5.6c0-2.9,2.3-5.3,5.1-5.6c0.4,0.7,0.8,1.3,1.3,1.9  c-0.3-0.1-0.5-0.1-0.8-0.1c-2.1,0-3.8,1.7-3.8,3.8c0,2.1,1.7,3.8,3.8,3.8s3.8-1.7,3.8-3.8c0-0.5-0.1-0.9-0.3-1.4  c0.6,0.4,1.3,0.7,2.1,1c0,0.1,0,0.2,0,0.3C62.4,49.8,59.9,52.3,56.8,52.3z"/>
<path d="M40.4,46.7c0-3.8-3.1-6.9-6.9-6.9l-0.4,0l-0.2,0.4c-1.1,2.4-3.1,4.1-5.9,5.1l-0.4,0.1l-0.1,0.6c0,0.3-0.1,0.5-0.1,0.8  c0,3.8,3.1,7,7,7S40.4,50.5,40.4,46.7z M33.4,52.3c-3.1,0-5.6-2.5-5.6-5.6c0-0.1,0-0.2,0-0.3c0.8-0.3,1.4-0.6,2.1-1  c-0.2,0.4-0.3,0.9-0.3,1.4c0,2.1,1.7,3.8,3.8,3.8c2.1,0,3.8-1.7,3.8-3.8c0-2.1-1.7-3.8-3.8-3.8c-0.3,0-0.5,0-0.8,0.1  c0.5-0.6,0.9-1.2,1.3-1.9c2.9,0.3,5.1,2.7,5.1,5.6C39.1,49.8,36.5,52.3,33.4,52.3z"/>
</svg>